<svg width="1719" height="484" viewBox="0 0 1719 484" fill="none" xmlns="http://www.w3.org/2000/svg">
<g filter="url(#filter0_dg_223_455)">
<rect width="1828.4" height="127.191" transform="matrix(0.981853 0.189646 -0.200805 0.979631 -80.4595 4)" fill="#DDA200"/>
</g>
<path d="M23.8417 44.786L69.7802 54.7062L5.4804 81.2065L64.8678 137.354L19.9217 127.648L-42.4428 70.8577L23.8417 44.786Z" fill="black"/>
<path d="M130.297 70.8842L176.618 80.8871L111.88 107.293L171.867 163.569L126.546 153.782L63.5572 96.8577L130.297 70.8842Z" fill="black"/>
<path d="M513.276 133.659L559.214 143.579L494.914 170.08L554.302 226.227L509.356 216.521L446.991 159.731L513.276 133.659Z" fill="black"/>
<path d="M618.16 156.308L664.098 166.229L599.799 192.729L659.186 248.876L614.24 239.17L551.875 182.38L618.16 156.308Z" fill="black"/>
<path d="M718.505 177.977L764.826 187.98L700.088 214.386L760.075 270.662L714.754 260.876L651.765 203.951L718.505 177.977Z" fill="black"/>
<path d="M1152.57 271.712L1198.51 281.632L1134.21 308.132L1193.6 364.279L1148.65 354.573L1086.29 297.783L1152.57 271.712Z" fill="black"/>
<path d="M1252.92 293.381L1299.24 303.384L1234.5 329.789L1294.49 386.066L1249.16 376.279L1186.18 319.354L1252.92 293.381Z" fill="black"/>
<path d="M264.887 108.57L276.148 111.001L274.446 116.504L265.438 114.559L265.212 114.804L268.579 129.815C269.28 132.836 269.413 135.05 268.978 136.457C268.023 139.544 266.276 141.58 263.736 142.565L251.302 139.88L252.947 134.56L262.659 136.658L262.885 136.413L259.02 119.777C258.461 117.374 258.39 115.499 258.806 114.154C259.789 110.975 261.816 109.113 264.887 108.57ZM273.568 133.779L276.163 125.387L272.925 124.688L274.414 119.873L277.651 120.572L279.622 114.197L285.863 115.545L283.892 121.919L287.739 122.75L286.25 127.565L282.403 126.734L279.354 136.594C278.778 138.459 278.699 139.844 279.12 140.75L281.982 141.368L280.493 146.183L273.831 144.745C272.636 142.889 272.136 141.052 272.331 139.235C272.503 137.707 272.915 135.888 273.568 133.779ZM297.419 149.839L287.191 147.63C284.942 144.111 284.579 139.891 286.101 134.969C286.867 132.492 287.877 130.411 289.132 128.726C290.419 127.047 292.093 125.517 294.155 124.136L305.134 126.506C306.194 128.692 306.751 130.72 306.807 132.591C306.871 134.432 306.507 136.636 305.713 139.204C304.191 144.126 301.426 147.671 297.419 149.839ZM292.011 143.534L295.577 144.304C297.365 142.407 298.679 140.098 299.521 137.377C300.362 134.657 300.454 132.361 299.798 130.491L296.279 129.731C294.671 131.047 293.423 133.142 292.534 136.016C291.655 138.859 291.481 141.365 292.011 143.534ZM312.716 128.144L317.736 129.228L317.929 131.031C318.806 130.568 319.58 130.278 320.25 130.162C320.951 130.053 321.912 130.129 323.132 130.393L327.354 131.305C328.28 132.842 328.812 134.685 328.948 136.834C329.084 138.984 328.784 141.251 328.046 143.635C326.468 148.741 323.665 152.408 319.639 154.637L315.651 153.776C313.993 153.418 312.812 152.706 312.107 151.641L309.583 159.803L303.343 158.456L312.716 128.144ZM313.199 148.109L317.703 149.082C319.456 147.406 320.758 145.192 321.609 142.441C322.459 139.689 322.565 137.299 321.924 135.269L317.467 134.306L313.199 148.109ZM335.441 158.049L345.367 125.949L351.794 127.337L343.514 154.118L353.273 156.225L351.628 161.545L335.441 158.049ZM354.588 162.184L361.834 138.75L368.027 140.088L360.781 163.521L354.588 162.184ZM364.513 130.083L370.707 131.421L368.792 137.611L362.599 136.274L364.513 130.083ZM382.467 143.206L387.44 144.28C388.287 146.289 388.696 148.204 388.667 150.024C388.638 151.844 388.227 154.038 387.433 156.606L383.76 168.483L377.52 167.136L381.335 154.8C382.233 151.896 382.474 149.714 382.057 148.254L376.802 147.119L371.046 165.738L364.805 164.39L372.051 140.957L376.931 142.011L377.265 143.844C378.142 143.381 378.915 143.091 379.585 142.975C380.287 142.866 381.247 142.943 382.467 143.206ZM404.218 153.04L400.699 152.28C400.06 152.729 399.433 153.409 398.817 154.319C398.233 155.237 397.8 156.154 397.516 157.071L404.225 158.52C404.571 157.617 404.739 156.642 404.729 155.596C404.728 154.52 404.558 153.668 404.218 153.04ZM406.331 168.221L404.842 173.036L392.925 170.462C391.18 168.553 390.18 166.445 389.925 164.14C389.711 161.811 389.939 159.561 390.61 157.39C392.161 152.376 395.301 148.913 400.03 146.999L407.631 148.64C409.263 150.591 410.195 152.488 410.426 154.331C410.656 156.175 410.507 157.953 409.978 159.665C409.448 161.377 408.854 162.814 408.194 163.976L396.512 161.453C396.388 162.176 396.403 163.044 396.558 164.056C396.753 165.044 397.055 165.794 397.463 166.306L406.331 168.221Z" fill="black"/>
<path d="M866.224 238.425L877.485 240.857L875.783 246.36L866.775 244.415L866.549 244.659L869.916 259.671C870.617 262.692 870.749 264.906 870.315 266.312C869.36 269.4 867.613 271.436 865.073 272.42L852.639 269.735L854.284 264.416L863.996 266.513L864.222 266.268L860.357 249.633C859.798 247.229 859.727 245.355 860.143 244.01C861.126 240.83 863.153 238.969 866.224 238.425ZM874.905 263.634L877.5 255.242L874.262 254.543L875.751 249.728L878.988 250.427L880.959 244.053L887.2 245.401L885.229 251.775L889.076 252.606L887.587 257.421L883.74 256.59L880.691 266.449C880.114 268.314 880.036 269.7 880.457 270.606L883.319 271.224L881.83 276.039L875.168 274.6C873.973 272.744 873.473 270.908 873.668 269.091C873.84 267.563 874.252 265.744 874.905 263.634ZM898.756 279.694L888.528 277.486C886.279 273.967 885.916 269.747 887.438 264.824C888.204 262.348 889.214 260.267 890.469 258.581C891.756 256.902 893.43 255.372 895.492 253.991L906.471 256.362C907.531 258.548 908.088 260.576 908.144 262.447C908.208 264.287 907.844 266.491 907.05 269.06C905.528 273.982 902.763 277.527 898.756 279.694ZM893.348 273.39L896.914 274.16C898.702 272.263 900.016 269.954 900.858 267.233C901.699 264.512 901.791 262.217 901.135 260.346L897.616 259.587C896.008 260.903 894.76 262.997 893.871 265.871C892.992 268.714 892.818 271.221 893.348 273.39ZM914.053 257.999L919.073 259.083L919.266 260.886C920.143 260.423 920.917 260.134 921.587 260.018C922.288 259.908 923.249 259.985 924.469 260.249L928.691 261.16C929.617 262.698 930.149 264.541 930.285 266.69C930.421 268.839 930.121 271.106 929.383 273.491C927.805 278.596 925.002 282.264 920.976 284.493L916.988 283.631C915.33 283.273 914.149 282.562 913.444 281.496L910.92 289.659L904.68 288.311L914.053 257.999ZM914.536 277.965L919.04 278.938C920.793 277.262 922.095 275.048 922.946 272.296C923.796 269.545 923.902 267.154 923.261 265.124L918.804 264.162L914.536 277.965ZM936.778 287.905L946.704 255.804L953.131 257.192L944.851 283.973L954.61 286.081L952.965 291.4L936.778 287.905ZM955.925 292.039L963.17 268.606L969.364 269.944L962.118 293.377L955.925 292.039ZM965.85 259.939L972.044 261.276L970.129 267.467L963.936 266.13L965.85 259.939ZM983.804 273.062L988.777 274.136C989.624 276.145 990.033 278.06 990.004 279.88C989.975 281.7 989.564 283.894 988.77 286.462L985.097 298.339L978.857 296.992L982.672 284.656C983.57 281.752 983.81 279.57 983.394 278.11L978.139 276.975L972.382 295.593L966.142 294.246L973.388 270.813L978.268 271.866L978.602 273.7C979.479 273.237 980.252 272.947 980.922 272.831C981.624 272.721 982.584 272.798 983.804 273.062ZM1005.56 282.895L1002.04 282.136C1001.4 282.585 1000.77 283.264 1000.15 284.175C999.57 285.093 999.137 286.01 998.853 286.927L1005.56 288.376C1005.91 287.472 1006.08 286.498 1006.07 285.452C1006.07 284.375 1005.89 283.523 1005.56 282.895ZM1007.67 298.077L1006.18 302.892L994.262 300.318C992.517 298.408 991.517 296.301 991.262 293.996C991.048 291.666 991.276 289.417 991.947 287.246C993.498 282.232 996.638 278.768 1001.37 276.854L1008.97 278.496C1010.6 280.446 1011.53 282.343 1011.76 284.187C1011.99 286.031 1011.84 287.808 1011.31 289.52C1010.79 291.232 1010.19 292.669 1009.53 293.832L997.849 291.309C997.725 292.032 997.74 292.9 997.895 293.911C998.09 294.899 998.392 295.649 998.8 296.162L1007.67 298.077Z" fill="black"/>
<path d="M1414.62 356.848L1425.88 359.28L1424.18 364.783L1415.17 362.837L1414.94 363.082L1418.31 378.094C1419.01 381.115 1419.14 383.329 1418.71 384.735C1417.76 387.823 1416.01 389.859 1413.47 390.843L1401.03 388.158L1402.68 382.839L1412.39 384.936L1412.62 384.691L1408.75 368.056C1408.19 365.652 1408.12 363.778 1408.54 362.433C1409.52 359.253 1411.55 357.392 1414.62 356.848ZM1423.3 382.057L1425.89 373.665L1422.66 372.966L1424.15 368.151L1427.38 368.85L1429.35 362.476L1435.59 363.824L1433.62 370.198L1437.47 371.029L1435.98 375.844L1432.13 375.013L1429.09 384.872C1428.51 386.737 1428.43 388.123 1428.85 389.029L1431.71 389.647L1430.23 394.462L1423.56 393.023C1422.37 391.167 1421.87 389.331 1422.06 387.514C1422.24 385.986 1422.65 384.167 1423.3 382.057ZM1447.15 398.117L1436.92 395.908C1434.67 392.39 1434.31 388.169 1435.83 383.247C1436.6 380.771 1437.61 378.69 1438.86 377.004C1440.15 375.325 1441.83 373.795 1443.89 372.414L1454.87 374.785C1455.93 376.971 1456.48 378.999 1456.54 380.87C1456.6 382.71 1456.24 384.914 1455.45 387.482C1453.92 392.404 1451.16 395.949 1447.15 398.117ZM1441.74 391.813L1445.31 392.583C1447.1 390.686 1448.41 388.377 1449.25 385.656C1450.09 382.935 1450.19 380.64 1449.53 378.769L1446.01 378.009C1444.4 379.325 1443.15 381.42 1442.27 384.294C1441.39 387.137 1441.21 389.643 1441.74 391.813ZM1462.45 376.422L1467.47 377.506L1467.66 379.309C1468.54 378.846 1469.31 378.557 1469.98 378.441C1470.68 378.331 1471.64 378.408 1472.86 378.671L1477.09 379.583C1478.01 381.12 1478.54 382.964 1478.68 385.113C1478.82 387.262 1478.52 389.529 1477.78 391.914C1476.2 397.019 1473.4 400.687 1469.37 402.915L1465.38 402.054C1463.73 401.696 1462.54 400.984 1461.84 399.919L1459.32 408.082L1453.08 406.734L1462.45 376.422ZM1462.93 396.388L1467.44 397.361C1469.19 395.685 1470.49 393.471 1471.34 390.719C1472.19 387.968 1472.3 385.577 1471.66 383.547L1467.2 382.585L1462.93 396.388ZM1485.17 406.328L1495.1 374.227L1501.53 375.615L1493.25 402.396L1503 404.504L1501.36 409.823L1485.17 406.328ZM1504.32 410.462L1511.57 387.029L1517.76 388.366L1510.51 411.8L1504.32 410.462ZM1514.25 378.362L1520.44 379.699L1518.52 385.89L1512.33 384.553L1514.25 378.362ZM1532.2 391.485L1537.17 392.559C1538.02 394.568 1538.43 396.483 1538.4 398.303C1538.37 400.123 1537.96 402.317 1537.17 404.885L1533.49 416.762L1527.25 415.414L1531.07 403.079C1531.96 400.174 1532.21 397.992 1531.79 396.533L1526.53 395.398L1520.78 414.016L1514.54 412.669L1521.78 389.235L1526.66 390.289L1527 392.122C1527.87 391.66 1528.65 391.37 1529.32 391.254C1530.02 391.144 1530.98 391.221 1532.2 391.485ZM1553.95 401.318L1550.43 400.558C1549.79 401.007 1549.16 401.687 1548.55 402.598C1547.97 403.516 1547.53 404.433 1547.25 405.35L1553.96 406.799C1554.3 405.895 1554.47 404.92 1554.46 403.875C1554.46 402.798 1554.29 401.946 1553.95 401.318ZM1556.06 416.499L1554.57 421.315L1542.66 418.741C1540.91 416.831 1539.91 414.724 1539.66 412.418C1539.44 410.089 1539.67 407.839 1540.34 405.669C1541.89 400.655 1545.03 397.191 1549.76 395.277L1557.36 396.919C1559 398.869 1559.93 400.766 1560.16 402.61C1560.39 404.453 1560.24 406.231 1559.71 407.943C1559.18 409.655 1558.59 411.092 1557.93 412.254L1546.24 409.732C1546.12 410.455 1546.14 411.323 1546.29 412.334C1546.48 413.322 1546.79 414.072 1547.2 414.585L1556.06 416.499Z" fill="black"/>
<defs>
<filter id="filter0_dg_223_455" x="-110" y="0" width="1828.76" height="483.348" filterUnits="userSpaceOnUse" color-interpolation-filters="sRGB">
<feFlood flood-opacity="0" result="BackgroundImageFix"/>
<feColorMatrix in="SourceAlpha" type="matrix" values="0 0 0 0 0 0 0 0 0 0 0 0 0 0 0 0 0 0 127 0" result="hardAlpha"/>
<feOffset dy="4"/>
<feGaussianBlur stdDeviation="2"/>
<feComposite in2="hardAlpha" operator="out"/>
<feColorMatrix type="matrix" values="0 0 0 0 0 0 0 0 0 0 0 0 0 0 0 0 0 0 0.25 0"/>
<feBlend mode="normal" in2="BackgroundImageFix" result="effect1_dropShadow_223_455"/>
<feBlend mode="normal" in="SourceGraphic" in2="effect1_dropShadow_223_455" result="shape"/>
<feTurbulence type="fractalNoise" baseFrequency="0.095238097012042999 0.095238097012042999" numOctaves="3" seed="3137" />
<feDisplacementMap in="shape" scale="8" xChannelSelector="R" yChannelSelector="G" result="displacedImage" width="100%" height="100%" />
<feMerge result="effect2_texture_223_455">
<feMergeNode in="displacedImage"/>
</feMerge>
</filter>
</defs>
</svg>
